<svg xmlns="http://www.w3.org/2000/svg" xmlns:xlink="http://www.w3.org/1999/xlink" version="1.1" x="0px" y="0px" viewBox="0 0 512 512" enable-background="new 0 0 512 512" xml:space="preserve"><g><path d="M493.6,493.6V223.2H387.1v-90.1h-57.4V2H182.3v131.1h-57.4v90.1H18.4v270.4H2V510h508v-16.4H493.6z M198.6,18.4h114.7   v114.7H198.6V18.4z M34.8,493.6v-254h90.1v254H34.8z M215,493.6V378.9H297v114.7H215z M313.4,493.6V362.5H198.6v131.1h-57.4V149.5   h229.4v344.1H313.4z M477.2,493.6h-90.1v-254h90.1V493.6z"></path><rect x="59.4" y="272.4" width="41" height="16.4"></rect><rect x="59.4" y="329.7" width="41" height="16.4"></rect><rect x="59.4" y="387.1" width="41" height="16.4"></rect><rect x="59.4" y="444.5" width="41" height="16.4"></rect><rect x="411.7" y="272.4" width="41" height="16.4"></rect><rect x="411.7" y="329.7" width="41" height="16.4"></rect><rect x="411.7" y="387.1" width="41" height="16.4"></rect><rect x="411.7" y="444.5" width="41" height="16.4"></rect><polygon points="264.2,34.8 247.8,34.8 247.8,67.6 215,67.6 215,83.9 247.8,83.9 247.8,116.7 264.2,116.7 264.2,83.9 297,83.9    297,67.6 264.2,67.6  "></polygon><path d="M174.1,239.6h65.5v-65.5h-65.5V239.6z M190.5,190.5h32.8v32.8h-32.8V190.5z"></path><path d="M272.4,239.6h65.5v-65.5h-65.5V239.6z M288.8,190.5h32.8v32.8h-32.8V190.5z"></path><path d="M174.1,329.7h65.5v-65.5h-65.5V329.7z M190.5,280.6h32.8v32.8h-32.8V280.6z"></path><path d="M272.4,329.7h65.5v-65.5h-65.5V329.7z M288.8,280.6h32.8v32.8h-32.8V280.6z"></path></g></svg>